<?xml version="1.0" encoding="UTF-8" standalone="no"?>
<svg
   version="1.0"
   width="150.000000pt"
   height="150.000000pt"
   viewBox="0 0 150.000000 150.000000"
   preserveAspectRatio="xMidYMid meet"
   id="svg95"
   sodipodi:docname="bashify-white.svg"
   inkscape:version="1.1.2 (0a00cf5339, 2022-02-04)"
   xmlns:inkscape="http://www.inkscape.org/namespaces/inkscape"
   xmlns:sodipodi="http://sodipodi.sourceforge.net/DTD/sodipodi-0.dtd"
   xmlns="http://www.w3.org/2000/svg"
   xmlns:svg="http://www.w3.org/2000/svg">
  <defs
     id="defs99" />
  <sodipodi:namedview
     id="namedview97"
     pagecolor="#ffffff"
     bordercolor="#666666"
     borderopacity="1.0"
     inkscape:pageshadow="2"
     inkscape:pageopacity="0.0"
     inkscape:pagecheckerboard="0"
     inkscape:document-units="pt"
     showgrid="false"
     inkscape:zoom="4.035"
     inkscape:cx="99.876084"
     inkscape:cy="100"
     inkscape:window-width="1920"
     inkscape:window-height="1020"
     inkscape:window-x="0"
     inkscape:window-y="28"
     inkscape:window-maximized="1"
     inkscape:current-layer="svg95" />
  <g
     transform="translate(0.000000,150.000000) scale(0.100000,-0.100000)"
     fill="#000000"
     stroke="none"
     id="g93"
     style="fill:#dee3db">
    <path
       d="M493 1178 l-243 -141 0 -286 0 -286 246 -141 247 -142 246 142 246 142 3 281 2 281 -27 20 c-35 24 -449 261 -466 267 -6 2 -121 -60 -254 -137z m130 -300 c99 -38 108 -43 105 -66 -3 -21 -18 -30 -115 -67 l-113 -43 0 28 c0 26 5 30 68 50 37 13 71 26 75 30 5 4 -24 19 -65 32 -64 22 -73 28 -76 51 -2 15 0 27 5 27 4 0 57 -19 116 -42z m367 -278 c0 -19 -7 -20 -120 -20 -113 0 -120 1 -120 20 0 19 7 20 120 20 113 0 120 -1 120 -20z"
       id="path91"
       style="fill:#dee3db" />
  </g>
</svg>
